<mxfile host="app.diagrams.net" modified="2022-08-16T07:44:45.422Z" agent="5.0 (Windows NT 10.0; Win64; x64) AppleWebKit/537.36 (KHTML, like Gecko) Chrome/104.0.5112.81 Safari/537.36 Edg/104.0.1293.54" etag="JKKggmCsBrs92HrsSK64" version="20.2.3" type="github" pages="2">
  <diagram id="Z3lHb-Kld0_AuQSKJNYd" name="执行流程">
    <mxGraphModel dx="1422" dy="762" grid="1" gridSize="10" guides="1" tooltips="1" connect="1" arrows="1" fold="1" page="1" pageScale="1" pageWidth="827" pageHeight="1169" math="0" shadow="0">
      <root>
        <mxCell id="0" />
        <mxCell id="1" parent="0" />
        <mxCell id="f8wD1Zzg_ebJP7m_eRMk-1" value="" style="whiteSpace=wrap;html=1;" parent="1" vertex="1">
          <mxGeometry x="60" y="140" width="120" height="540" as="geometry" />
        </mxCell>
        <mxCell id="f8wD1Zzg_ebJP7m_eRMk-2" value="Client" style="whiteSpace=wrap;html=1;fillColor=#f5f5f5;fontColor=#333333;strokeColor=#666666;" parent="1" vertex="1">
          <mxGeometry x="60" y="140" width="120" height="60" as="geometry" />
        </mxCell>
        <mxCell id="f8wD1Zzg_ebJP7m_eRMk-3" value="JDBC" style="whiteSpace=wrap;html=1;fillColor=#dae8fc;strokeColor=#6c8ebf;" parent="1" vertex="1">
          <mxGeometry x="60" y="200" width="120" height="60" as="geometry" />
        </mxCell>
        <mxCell id="f8wD1Zzg_ebJP7m_eRMk-4" value="" style="whiteSpace=wrap;html=1;" parent="1" vertex="1">
          <mxGeometry x="280" y="140" width="590" height="540" as="geometry" />
        </mxCell>
        <mxCell id="f8wD1Zzg_ebJP7m_eRMk-5" value="Server" style="whiteSpace=wrap;html=1;fillColor=#f5f5f5;fontColor=#333333;strokeColor=#666666;" parent="1" vertex="1">
          <mxGeometry x="280" y="140" width="590" height="60" as="geometry" />
        </mxCell>
        <mxCell id="f8wD1Zzg_ebJP7m_eRMk-6" value="连接器" style="whiteSpace=wrap;html=1;fillColor=#d5e8d4;strokeColor=#82b366;" parent="1" vertex="1">
          <mxGeometry x="280" y="200" width="150" height="60" as="geometry" />
        </mxCell>
        <mxCell id="f8wD1Zzg_ebJP7m_eRMk-7" value="分析器" style="whiteSpace=wrap;html=1;fillColor=#ffe6cc;strokeColor=#d79b00;" parent="1" vertex="1">
          <mxGeometry x="430" y="200" width="150" height="60" as="geometry" />
        </mxCell>
        <mxCell id="f8wD1Zzg_ebJP7m_eRMk-8" value="优化器" style="whiteSpace=wrap;html=1;fillColor=#fff2cc;strokeColor=#d6b656;" parent="1" vertex="1">
          <mxGeometry x="580" y="200" width="140" height="60" as="geometry" />
        </mxCell>
        <mxCell id="f8wD1Zzg_ebJP7m_eRMk-9" value="执行器" style="whiteSpace=wrap;html=1;fillColor=#f8cecc;strokeColor=#b85450;" parent="1" vertex="1">
          <mxGeometry x="720" y="200" width="150" height="60" as="geometry" />
        </mxCell>
        <mxCell id="f8wD1Zzg_ebJP7m_eRMk-10" value="" style="whiteSpace=wrap;html=1;" parent="1" vertex="1">
          <mxGeometry x="970" y="140" width="310" height="540" as="geometry" />
        </mxCell>
        <mxCell id="f8wD1Zzg_ebJP7m_eRMk-11" value="引擎层" style="whiteSpace=wrap;html=1;fillColor=#f5f5f5;fontColor=#333333;strokeColor=#666666;" parent="1" vertex="1">
          <mxGeometry x="970" y="140" width="310" height="60" as="geometry" />
        </mxCell>
        <mxCell id="f8wD1Zzg_ebJP7m_eRMk-12" value="InnoDB" style="whiteSpace=wrap;html=1;fillColor=#e1d5e7;strokeColor=#9673a6;" parent="1" vertex="1">
          <mxGeometry x="970" y="200" width="310" height="60" as="geometry" />
        </mxCell>
        <mxCell id="f8wD1Zzg_ebJP7m_eRMk-13" value="Start" style="rounded=1;whiteSpace=wrap;html=1;fillColor=#d5e8d4;strokeColor=#82b366;" parent="1" vertex="1">
          <mxGeometry x="80" y="290" width="80" height="60" as="geometry" />
        </mxCell>
        <mxCell id="f8wD1Zzg_ebJP7m_eRMk-14" value="End" style="rounded=1;whiteSpace=wrap;html=1;fillColor=#d5e8d4;strokeColor=#82b366;" parent="1" vertex="1">
          <mxGeometry x="80" y="525" width="80" height="60" as="geometry" />
        </mxCell>
        <mxCell id="f8wD1Zzg_ebJP7m_eRMk-15" value="" style="whiteSpace=wrap;html=1;" parent="1" vertex="1">
          <mxGeometry x="280" y="260" width="150" height="420" as="geometry" />
        </mxCell>
        <mxCell id="f8wD1Zzg_ebJP7m_eRMk-16" value="" style="whiteSpace=wrap;html=1;" parent="1" vertex="1">
          <mxGeometry x="430" y="260" width="150" height="420" as="geometry" />
        </mxCell>
        <mxCell id="f8wD1Zzg_ebJP7m_eRMk-17" value="" style="whiteSpace=wrap;html=1;" parent="1" vertex="1">
          <mxGeometry x="580" y="260" width="140" height="420" as="geometry" />
        </mxCell>
        <mxCell id="f8wD1Zzg_ebJP7m_eRMk-18" value="" style="whiteSpace=wrap;html=1;" parent="1" vertex="1">
          <mxGeometry x="720" y="260" width="150" height="420" as="geometry" />
        </mxCell>
        <mxCell id="f8wD1Zzg_ebJP7m_eRMk-31" style="edgeStyle=orthogonalEdgeStyle;rounded=0;orthogonalLoop=1;jettySize=auto;html=1;entryX=1;entryY=0.5;entryDx=0;entryDy=0;" parent="1" source="f8wD1Zzg_ebJP7m_eRMk-19" target="f8wD1Zzg_ebJP7m_eRMk-14" edge="1">
          <mxGeometry relative="1" as="geometry" />
        </mxCell>
        <mxCell id="f8wD1Zzg_ebJP7m_eRMk-33" value="不通过" style="edgeLabel;html=1;align=center;verticalAlign=middle;resizable=0;points=[];" parent="f8wD1Zzg_ebJP7m_eRMk-31" vertex="1" connectable="0">
          <mxGeometry x="-0.0653" y="-1" relative="1" as="geometry">
            <mxPoint as="offset" />
          </mxGeometry>
        </mxCell>
        <mxCell id="f8wD1Zzg_ebJP7m_eRMk-32" style="edgeStyle=orthogonalEdgeStyle;rounded=0;orthogonalLoop=1;jettySize=auto;html=1;" parent="1" source="f8wD1Zzg_ebJP7m_eRMk-19" target="f8wD1Zzg_ebJP7m_eRMk-24" edge="1">
          <mxGeometry relative="1" as="geometry" />
        </mxCell>
        <mxCell id="f8wD1Zzg_ebJP7m_eRMk-34" value="通过" style="edgeLabel;html=1;align=center;verticalAlign=middle;resizable=0;points=[];" parent="f8wD1Zzg_ebJP7m_eRMk-32" vertex="1" connectable="0">
          <mxGeometry x="-0.1709" relative="1" as="geometry">
            <mxPoint as="offset" />
          </mxGeometry>
        </mxCell>
        <mxCell id="f8wD1Zzg_ebJP7m_eRMk-19" value="验证身份" style="rhombus;whiteSpace=wrap;html=1;fillColor=#fff2cc;strokeColor=#d6b656;" parent="1" vertex="1">
          <mxGeometry x="315" y="390" width="80" height="80" as="geometry" />
        </mxCell>
        <mxCell id="f8wD1Zzg_ebJP7m_eRMk-29" style="edgeStyle=orthogonalEdgeStyle;rounded=0;orthogonalLoop=1;jettySize=auto;html=1;" parent="1" source="f8wD1Zzg_ebJP7m_eRMk-22" target="f8wD1Zzg_ebJP7m_eRMk-19" edge="1">
          <mxGeometry relative="1" as="geometry" />
        </mxCell>
        <mxCell id="f8wD1Zzg_ebJP7m_eRMk-22" value="建立连接" style="whiteSpace=wrap;html=1;fillColor=#ffe6cc;strokeColor=#d79b00;" parent="1" vertex="1">
          <mxGeometry x="295" y="290" width="120" height="60" as="geometry" />
        </mxCell>
        <mxCell id="f8wD1Zzg_ebJP7m_eRMk-26" style="edgeStyle=orthogonalEdgeStyle;rounded=0;orthogonalLoop=1;jettySize=auto;html=1;" parent="1" source="f8wD1Zzg_ebJP7m_eRMk-24" target="f8wD1Zzg_ebJP7m_eRMk-14" edge="1">
          <mxGeometry relative="1" as="geometry" />
        </mxCell>
        <mxCell id="f8wD1Zzg_ebJP7m_eRMk-35" value="超时" style="edgeLabel;html=1;align=center;verticalAlign=middle;resizable=0;points=[];" parent="f8wD1Zzg_ebJP7m_eRMk-26" vertex="1" connectable="0">
          <mxGeometry x="-0.3839" relative="1" as="geometry">
            <mxPoint x="-7" as="offset" />
          </mxGeometry>
        </mxCell>
        <mxCell id="f8wD1Zzg_ebJP7m_eRMk-37" style="edgeStyle=orthogonalEdgeStyle;rounded=0;orthogonalLoop=1;jettySize=auto;html=1;" parent="1" source="f8wD1Zzg_ebJP7m_eRMk-24" target="f8wD1Zzg_ebJP7m_eRMk-36" edge="1">
          <mxGeometry relative="1" as="geometry">
            <Array as="points">
              <mxPoint x="420" y="555" />
              <mxPoint x="420" y="555" />
            </Array>
          </mxGeometry>
        </mxCell>
        <mxCell id="f8wD1Zzg_ebJP7m_eRMk-38" value="否" style="edgeLabel;html=1;align=center;verticalAlign=middle;resizable=0;points=[];" parent="f8wD1Zzg_ebJP7m_eRMk-37" vertex="1" connectable="0">
          <mxGeometry x="-0.1145" y="-1" relative="1" as="geometry">
            <mxPoint as="offset" />
          </mxGeometry>
        </mxCell>
        <mxCell id="f8wD1Zzg_ebJP7m_eRMk-24" value="空闲" style="rhombus;whiteSpace=wrap;html=1;fillColor=#fff2cc;strokeColor=#d6b656;" parent="1" vertex="1">
          <mxGeometry x="315" y="515" width="80" height="80" as="geometry" />
        </mxCell>
        <mxCell id="f8wD1Zzg_ebJP7m_eRMk-28" style="edgeStyle=orthogonalEdgeStyle;rounded=0;orthogonalLoop=1;jettySize=auto;html=1;" parent="1" source="f8wD1Zzg_ebJP7m_eRMk-13" target="f8wD1Zzg_ebJP7m_eRMk-22" edge="1">
          <mxGeometry relative="1" as="geometry" />
        </mxCell>
        <mxCell id="f8wD1Zzg_ebJP7m_eRMk-30" value="TCP 连接" style="edgeLabel;html=1;align=center;verticalAlign=middle;resizable=0;points=[];" parent="f8wD1Zzg_ebJP7m_eRMk-28" vertex="1" connectable="0">
          <mxGeometry x="-0.0377" y="1" relative="1" as="geometry">
            <mxPoint as="offset" />
          </mxGeometry>
        </mxCell>
        <mxCell id="f8wD1Zzg_ebJP7m_eRMk-40" style="edgeStyle=orthogonalEdgeStyle;rounded=0;orthogonalLoop=1;jettySize=auto;html=1;entryX=0.5;entryY=1;entryDx=0;entryDy=0;" parent="1" source="f8wD1Zzg_ebJP7m_eRMk-36" target="f8wD1Zzg_ebJP7m_eRMk-39" edge="1">
          <mxGeometry relative="1" as="geometry" />
        </mxCell>
        <mxCell id="f8wD1Zzg_ebJP7m_eRMk-36" value="词法分析" style="whiteSpace=wrap;html=1;fillColor=#ffe6cc;strokeColor=#d79b00;" parent="1" vertex="1">
          <mxGeometry x="445" y="525" width="120" height="60" as="geometry" />
        </mxCell>
        <mxCell id="f8wD1Zzg_ebJP7m_eRMk-42" value="" style="edgeStyle=orthogonalEdgeStyle;rounded=0;orthogonalLoop=1;jettySize=auto;html=1;" parent="1" source="f8wD1Zzg_ebJP7m_eRMk-39" target="f8wD1Zzg_ebJP7m_eRMk-41" edge="1">
          <mxGeometry relative="1" as="geometry" />
        </mxCell>
        <mxCell id="f8wD1Zzg_ebJP7m_eRMk-43" value="错误" style="edgeLabel;html=1;align=center;verticalAlign=middle;resizable=0;points=[];" parent="f8wD1Zzg_ebJP7m_eRMk-42" vertex="1" connectable="0">
          <mxGeometry x="-0.1611" y="1" relative="1" as="geometry">
            <mxPoint as="offset" />
          </mxGeometry>
        </mxCell>
        <mxCell id="f8wD1Zzg_ebJP7m_eRMk-45" style="edgeStyle=orthogonalEdgeStyle;rounded=0;orthogonalLoop=1;jettySize=auto;html=1;" parent="1" source="f8wD1Zzg_ebJP7m_eRMk-39" target="f8wD1Zzg_ebJP7m_eRMk-44" edge="1">
          <mxGeometry relative="1" as="geometry" />
        </mxCell>
        <mxCell id="f8wD1Zzg_ebJP7m_eRMk-50" value="正确" style="edgeLabel;html=1;align=center;verticalAlign=middle;resizable=0;points=[];" parent="f8wD1Zzg_ebJP7m_eRMk-45" vertex="1" connectable="0">
          <mxGeometry x="-0.2938" y="-1" relative="1" as="geometry">
            <mxPoint y="-1" as="offset" />
          </mxGeometry>
        </mxCell>
        <mxCell id="f8wD1Zzg_ebJP7m_eRMk-39" value="语法分析" style="rhombus;whiteSpace=wrap;html=1;fillColor=#fff2cc;strokeColor=#d6b656;" parent="1" vertex="1">
          <mxGeometry x="465" y="390" width="80" height="80" as="geometry" />
        </mxCell>
        <mxCell id="f8wD1Zzg_ebJP7m_eRMk-41" value="You have an error in your SQL syntax" style="rounded=0;whiteSpace=wrap;html=1;fillColor=#f8cecc;strokeColor=#b85450;" parent="1" vertex="1">
          <mxGeometry x="445" y="290" width="120" height="60" as="geometry" />
        </mxCell>
        <mxCell id="f8wD1Zzg_ebJP7m_eRMk-49" style="edgeStyle=orthogonalEdgeStyle;rounded=0;orthogonalLoop=1;jettySize=auto;html=1;" parent="1" source="f8wD1Zzg_ebJP7m_eRMk-44" target="f8wD1Zzg_ebJP7m_eRMk-46" edge="1">
          <mxGeometry relative="1" as="geometry" />
        </mxCell>
        <mxCell id="f8wD1Zzg_ebJP7m_eRMk-44" value="确定执行方案" style="whiteSpace=wrap;html=1;fillColor=#ffe6cc;strokeColor=#d79b00;" parent="1" vertex="1">
          <mxGeometry x="590" y="400" width="120" height="60" as="geometry" />
        </mxCell>
        <mxCell id="f8wD1Zzg_ebJP7m_eRMk-48" style="edgeStyle=orthogonalEdgeStyle;rounded=0;orthogonalLoop=1;jettySize=auto;html=1;entryX=0.5;entryY=1;entryDx=0;entryDy=0;" parent="1" source="f8wD1Zzg_ebJP7m_eRMk-46" target="f8wD1Zzg_ebJP7m_eRMk-47" edge="1">
          <mxGeometry relative="1" as="geometry" />
        </mxCell>
        <mxCell id="f8wD1Zzg_ebJP7m_eRMk-53" style="edgeStyle=orthogonalEdgeStyle;rounded=0;orthogonalLoop=1;jettySize=auto;html=1;entryX=0.5;entryY=0;entryDx=0;entryDy=0;" parent="1" source="f8wD1Zzg_ebJP7m_eRMk-46" target="f8wD1Zzg_ebJP7m_eRMk-51" edge="1">
          <mxGeometry relative="1" as="geometry" />
        </mxCell>
        <mxCell id="f8wD1Zzg_ebJP7m_eRMk-46" value="权限判断" style="rhombus;whiteSpace=wrap;html=1;fillColor=#fff2cc;strokeColor=#d6b656;" parent="1" vertex="1">
          <mxGeometry x="755" y="390" width="80" height="80" as="geometry" />
        </mxCell>
        <mxCell id="f8wD1Zzg_ebJP7m_eRMk-47" value="SELECT commond denied" style="whiteSpace=wrap;html=1;fillColor=#f8cecc;strokeColor=#b85450;" parent="1" vertex="1">
          <mxGeometry x="735" y="290" width="120" height="60" as="geometry" />
        </mxCell>
        <mxCell id="f8wD1Zzg_ebJP7m_eRMk-54" style="edgeStyle=orthogonalEdgeStyle;rounded=0;orthogonalLoop=1;jettySize=auto;html=1;entryX=0.5;entryY=0;entryDx=0;entryDy=0;" parent="1" source="f8wD1Zzg_ebJP7m_eRMk-51" target="f8wD1Zzg_ebJP7m_eRMk-52" edge="1">
          <mxGeometry relative="1" as="geometry" />
        </mxCell>
        <mxCell id="f8wD1Zzg_ebJP7m_eRMk-51" value="打开表" style="whiteSpace=wrap;html=1;fillColor=#ffe6cc;strokeColor=#d79b00;" parent="1" vertex="1">
          <mxGeometry x="752.5" y="495" width="85" height="30" as="geometry" />
        </mxCell>
        <mxCell id="f8wD1Zzg_ebJP7m_eRMk-62" style="edgeStyle=orthogonalEdgeStyle;rounded=0;orthogonalLoop=1;jettySize=auto;html=1;entryX=0;entryY=0.5;entryDx=0;entryDy=0;" parent="1" source="f8wD1Zzg_ebJP7m_eRMk-52" target="f8wD1Zzg_ebJP7m_eRMk-56" edge="1">
          <mxGeometry relative="1" as="geometry" />
        </mxCell>
        <mxCell id="f8wD1Zzg_ebJP7m_eRMk-52" value="确定引擎" style="whiteSpace=wrap;html=1;fillColor=#ffe6cc;strokeColor=#d79b00;" parent="1" vertex="1">
          <mxGeometry x="752.5" y="570" width="85" height="30" as="geometry" />
        </mxCell>
        <mxCell id="f8wD1Zzg_ebJP7m_eRMk-55" value="假设 InnoDB" style="text;html=1;strokeColor=none;fillColor=none;align=center;verticalAlign=middle;whiteSpace=wrap;rounded=0;" parent="1" vertex="1">
          <mxGeometry x="756.25" y="600" width="77.5" height="30" as="geometry" />
        </mxCell>
        <mxCell id="f8wD1Zzg_ebJP7m_eRMk-61" style="edgeStyle=orthogonalEdgeStyle;rounded=0;orthogonalLoop=1;jettySize=auto;html=1;entryX=0.5;entryY=1;entryDx=0;entryDy=0;" parent="1" source="f8wD1Zzg_ebJP7m_eRMk-56" target="f8wD1Zzg_ebJP7m_eRMk-57" edge="1">
          <mxGeometry relative="1" as="geometry" />
        </mxCell>
        <mxCell id="f8wD1Zzg_ebJP7m_eRMk-56" value="取表第 1 行" style="whiteSpace=wrap;html=1;fillColor=#ffe6cc;strokeColor=#d79b00;" parent="1" vertex="1">
          <mxGeometry x="1010" y="570" width="90" height="30" as="geometry" />
        </mxCell>
        <mxCell id="f8wD1Zzg_ebJP7m_eRMk-65" style="edgeStyle=orthogonalEdgeStyle;rounded=0;orthogonalLoop=1;jettySize=auto;html=1;entryX=0;entryY=0.5;entryDx=0;entryDy=0;exitX=0;exitY=0.5;exitDx=0;exitDy=0;" parent="1" source="f8wD1Zzg_ebJP7m_eRMk-57" target="f8wD1Zzg_ebJP7m_eRMk-59" edge="1">
          <mxGeometry relative="1" as="geometry" />
        </mxCell>
        <mxCell id="f8wD1Zzg_ebJP7m_eRMk-66" value="是" style="edgeLabel;html=1;align=center;verticalAlign=middle;resizable=0;points=[];" parent="f8wD1Zzg_ebJP7m_eRMk-65" vertex="1" connectable="0">
          <mxGeometry x="-0.3797" relative="1" as="geometry">
            <mxPoint y="-44" as="offset" />
          </mxGeometry>
        </mxCell>
        <mxCell id="f8wD1Zzg_ebJP7m_eRMk-73" style="edgeStyle=orthogonalEdgeStyle;rounded=0;orthogonalLoop=1;jettySize=auto;html=1;entryX=0;entryY=0.5;entryDx=0;entryDy=0;" parent="1" source="f8wD1Zzg_ebJP7m_eRMk-57" target="f8wD1Zzg_ebJP7m_eRMk-69" edge="1">
          <mxGeometry relative="1" as="geometry" />
        </mxCell>
        <mxCell id="f8wD1Zzg_ebJP7m_eRMk-74" value="否" style="edgeLabel;html=1;align=center;verticalAlign=middle;resizable=0;points=[];" parent="f8wD1Zzg_ebJP7m_eRMk-73" vertex="1" connectable="0">
          <mxGeometry x="-0.2024" relative="1" as="geometry">
            <mxPoint as="offset" />
          </mxGeometry>
        </mxCell>
        <mxCell id="f8wD1Zzg_ebJP7m_eRMk-57" value="判断是否符合条件" style="rhombus;whiteSpace=wrap;html=1;fillColor=#fff2cc;strokeColor=#d6b656;" parent="1" vertex="1">
          <mxGeometry x="1015" y="470" width="80" height="80" as="geometry" />
        </mxCell>
        <mxCell id="f8wD1Zzg_ebJP7m_eRMk-68" style="edgeStyle=orthogonalEdgeStyle;rounded=0;orthogonalLoop=1;jettySize=auto;html=1;entryX=0.5;entryY=0;entryDx=0;entryDy=0;" parent="1" source="f8wD1Zzg_ebJP7m_eRMk-58" target="f8wD1Zzg_ebJP7m_eRMk-57" edge="1">
          <mxGeometry relative="1" as="geometry" />
        </mxCell>
        <mxCell id="f8wD1Zzg_ebJP7m_eRMk-58" value="取表下一行" style="whiteSpace=wrap;html=1;fillColor=#ffe6cc;strokeColor=#d79b00;" parent="1" vertex="1">
          <mxGeometry x="1141" y="395" width="90" height="30" as="geometry" />
        </mxCell>
        <mxCell id="f8wD1Zzg_ebJP7m_eRMk-67" style="edgeStyle=orthogonalEdgeStyle;rounded=0;orthogonalLoop=1;jettySize=auto;html=1;entryX=1;entryY=0.5;entryDx=0;entryDy=0;exitX=1;exitY=0.5;exitDx=0;exitDy=0;" parent="1" source="f8wD1Zzg_ebJP7m_eRMk-59" target="f8wD1Zzg_ebJP7m_eRMk-69" edge="1">
          <mxGeometry relative="1" as="geometry" />
        </mxCell>
        <mxCell id="f8wD1Zzg_ebJP7m_eRMk-59" value="更新结果集" style="whiteSpace=wrap;html=1;fillColor=#ffe6cc;strokeColor=#d79b00;" parent="1" vertex="1">
          <mxGeometry x="1030" y="305" width="211" height="30" as="geometry" />
        </mxCell>
        <mxCell id="f8wD1Zzg_ebJP7m_eRMk-76" value="" style="edgeStyle=orthogonalEdgeStyle;rounded=0;orthogonalLoop=1;jettySize=auto;html=1;" parent="1" source="f8wD1Zzg_ebJP7m_eRMk-69" target="f8wD1Zzg_ebJP7m_eRMk-58" edge="1">
          <mxGeometry relative="1" as="geometry" />
        </mxCell>
        <mxCell id="f8wD1Zzg_ebJP7m_eRMk-77" value="否" style="edgeLabel;html=1;align=center;verticalAlign=middle;resizable=0;points=[];" parent="f8wD1Zzg_ebJP7m_eRMk-76" vertex="1" connectable="0">
          <mxGeometry x="0.3748" relative="1" as="geometry">
            <mxPoint y="11" as="offset" />
          </mxGeometry>
        </mxCell>
        <mxCell id="f8wD1Zzg_ebJP7m_eRMk-78" style="edgeStyle=orthogonalEdgeStyle;rounded=0;orthogonalLoop=1;jettySize=auto;html=1;entryX=0.5;entryY=1;entryDx=0;entryDy=0;" parent="1" source="f8wD1Zzg_ebJP7m_eRMk-69" target="f8wD1Zzg_ebJP7m_eRMk-14" edge="1">
          <mxGeometry relative="1" as="geometry">
            <Array as="points">
              <mxPoint x="1186" y="640" />
              <mxPoint x="120" y="640" />
            </Array>
          </mxGeometry>
        </mxCell>
        <mxCell id="f8wD1Zzg_ebJP7m_eRMk-79" value="是" style="edgeLabel;html=1;align=center;verticalAlign=middle;resizable=0;points=[];" parent="f8wD1Zzg_ebJP7m_eRMk-78" vertex="1" connectable="0">
          <mxGeometry x="-0.9409" y="-2" relative="1" as="geometry">
            <mxPoint as="offset" />
          </mxGeometry>
        </mxCell>
        <mxCell id="f8wD1Zzg_ebJP7m_eRMk-69" value="最后一行" style="rhombus;whiteSpace=wrap;html=1;fillColor=#fff2cc;strokeColor=#d6b656;" parent="1" vertex="1">
          <mxGeometry x="1146" y="470" width="80" height="80" as="geometry" />
        </mxCell>
      </root>
    </mxGraphModel>
  </diagram>
  <diagram id="-R85BgPAhbhssGfyjkP_" name="SQL 执行流程">
    <mxGraphModel dx="1422" dy="762" grid="1" gridSize="10" guides="1" tooltips="1" connect="1" arrows="1" fold="1" page="1" pageScale="1" pageWidth="827" pageHeight="1169" math="0" shadow="0">
      <root>
        <mxCell id="0" />
        <mxCell id="1" parent="0" />
        <mxCell id="uIO3_eCwUhngCl2YSvmF-12" value="" style="edgeStyle=orthogonalEdgeStyle;rounded=0;orthogonalLoop=1;jettySize=auto;html=1;" parent="1" source="uIO3_eCwUhngCl2YSvmF-1" target="uIO3_eCwUhngCl2YSvmF-2" edge="1">
          <mxGeometry relative="1" as="geometry" />
        </mxCell>
        <mxCell id="uIO3_eCwUhngCl2YSvmF-1" value="from" style="whiteSpace=wrap;html=1;fillColor=#dae8fc;strokeColor=#6c8ebf;" parent="1" vertex="1">
          <mxGeometry x="70" y="70" width="120" height="60" as="geometry" />
        </mxCell>
        <mxCell id="uIO3_eCwUhngCl2YSvmF-13" value="" style="edgeStyle=orthogonalEdgeStyle;rounded=0;orthogonalLoop=1;jettySize=auto;html=1;" parent="1" source="uIO3_eCwUhngCl2YSvmF-2" target="uIO3_eCwUhngCl2YSvmF-3" edge="1">
          <mxGeometry relative="1" as="geometry" />
        </mxCell>
        <mxCell id="uIO3_eCwUhngCl2YSvmF-2" value="on" style="whiteSpace=wrap;html=1;dashed=1;fillColor=#d5e8d4;strokeColor=#82b366;" parent="1" vertex="1">
          <mxGeometry x="280" y="70" width="120" height="60" as="geometry" />
        </mxCell>
        <mxCell id="uIO3_eCwUhngCl2YSvmF-14" style="edgeStyle=orthogonalEdgeStyle;rounded=0;orthogonalLoop=1;jettySize=auto;html=1;entryX=0.5;entryY=0;entryDx=0;entryDy=0;" parent="1" source="uIO3_eCwUhngCl2YSvmF-3" target="uIO3_eCwUhngCl2YSvmF-4" edge="1">
          <mxGeometry relative="1" as="geometry">
            <Array as="points">
              <mxPoint x="550" y="160" />
              <mxPoint x="130" y="160" />
            </Array>
          </mxGeometry>
        </mxCell>
        <mxCell id="uIO3_eCwUhngCl2YSvmF-3" value="join" style="whiteSpace=wrap;html=1;dashed=1;fillColor=#d5e8d4;strokeColor=#82b366;" parent="1" vertex="1">
          <mxGeometry x="490" y="70" width="120" height="60" as="geometry" />
        </mxCell>
        <mxCell id="uIO3_eCwUhngCl2YSvmF-15" value="" style="edgeStyle=orthogonalEdgeStyle;rounded=0;orthogonalLoop=1;jettySize=auto;html=1;" parent="1" source="uIO3_eCwUhngCl2YSvmF-4" target="uIO3_eCwUhngCl2YSvmF-5" edge="1">
          <mxGeometry relative="1" as="geometry" />
        </mxCell>
        <mxCell id="uIO3_eCwUhngCl2YSvmF-4" value="where" style="whiteSpace=wrap;html=1;fillColor=#dae8fc;strokeColor=#6c8ebf;" parent="1" vertex="1">
          <mxGeometry x="70" y="200" width="120" height="60" as="geometry" />
        </mxCell>
        <mxCell id="uIO3_eCwUhngCl2YSvmF-16" value="" style="edgeStyle=orthogonalEdgeStyle;rounded=0;orthogonalLoop=1;jettySize=auto;html=1;" parent="1" source="uIO3_eCwUhngCl2YSvmF-5" target="uIO3_eCwUhngCl2YSvmF-6" edge="1">
          <mxGeometry relative="1" as="geometry" />
        </mxCell>
        <mxCell id="uIO3_eCwUhngCl2YSvmF-5" value="group by" style="whiteSpace=wrap;html=1;dashed=1;fillColor=#ffe6cc;strokeColor=#d79b00;" parent="1" vertex="1">
          <mxGeometry x="280" y="200" width="120" height="60" as="geometry" />
        </mxCell>
        <mxCell id="uIO3_eCwUhngCl2YSvmF-17" style="edgeStyle=orthogonalEdgeStyle;rounded=0;orthogonalLoop=1;jettySize=auto;html=1;entryX=0.5;entryY=0;entryDx=0;entryDy=0;" parent="1" source="uIO3_eCwUhngCl2YSvmF-6" target="uIO3_eCwUhngCl2YSvmF-7" edge="1">
          <mxGeometry relative="1" as="geometry">
            <Array as="points">
              <mxPoint x="550" y="290" />
              <mxPoint x="130" y="290" />
            </Array>
          </mxGeometry>
        </mxCell>
        <mxCell id="uIO3_eCwUhngCl2YSvmF-6" value="hiving" style="whiteSpace=wrap;html=1;dashed=1;fillColor=#ffe6cc;strokeColor=#d79b00;" parent="1" vertex="1">
          <mxGeometry x="490" y="200" width="120" height="60" as="geometry" />
        </mxCell>
        <mxCell id="uIO3_eCwUhngCl2YSvmF-18" value="" style="edgeStyle=orthogonalEdgeStyle;rounded=0;orthogonalLoop=1;jettySize=auto;html=1;" parent="1" source="uIO3_eCwUhngCl2YSvmF-7" target="uIO3_eCwUhngCl2YSvmF-8" edge="1">
          <mxGeometry relative="1" as="geometry" />
        </mxCell>
        <mxCell id="uIO3_eCwUhngCl2YSvmF-7" value="select" style="whiteSpace=wrap;html=1;fillColor=#dae8fc;strokeColor=#6c8ebf;" parent="1" vertex="1">
          <mxGeometry x="70" y="330" width="120" height="60" as="geometry" />
        </mxCell>
        <mxCell id="uIO3_eCwUhngCl2YSvmF-19" value="" style="edgeStyle=orthogonalEdgeStyle;rounded=0;orthogonalLoop=1;jettySize=auto;html=1;" parent="1" source="uIO3_eCwUhngCl2YSvmF-8" target="uIO3_eCwUhngCl2YSvmF-9" edge="1">
          <mxGeometry relative="1" as="geometry" />
        </mxCell>
        <mxCell id="uIO3_eCwUhngCl2YSvmF-8" value="distinct" style="whiteSpace=wrap;html=1;dashed=1;fillColor=#fff2cc;strokeColor=#d6b656;" parent="1" vertex="1">
          <mxGeometry x="280" y="330" width="120" height="60" as="geometry" />
        </mxCell>
        <mxCell id="uIO3_eCwUhngCl2YSvmF-20" style="edgeStyle=orthogonalEdgeStyle;rounded=0;orthogonalLoop=1;jettySize=auto;html=1;entryX=0.5;entryY=0;entryDx=0;entryDy=0;" parent="1" source="uIO3_eCwUhngCl2YSvmF-9" target="uIO3_eCwUhngCl2YSvmF-10" edge="1">
          <mxGeometry relative="1" as="geometry">
            <Array as="points">
              <mxPoint x="550" y="430" />
              <mxPoint x="130" y="430" />
            </Array>
          </mxGeometry>
        </mxCell>
        <mxCell id="uIO3_eCwUhngCl2YSvmF-9" value="union" style="whiteSpace=wrap;html=1;dashed=1;fillColor=#f8cecc;strokeColor=#b85450;" parent="1" vertex="1">
          <mxGeometry x="490" y="330" width="120" height="60" as="geometry" />
        </mxCell>
        <mxCell id="uIO3_eCwUhngCl2YSvmF-21" value="" style="edgeStyle=orthogonalEdgeStyle;rounded=0;orthogonalLoop=1;jettySize=auto;html=1;" parent="1" source="uIO3_eCwUhngCl2YSvmF-10" target="uIO3_eCwUhngCl2YSvmF-11" edge="1">
          <mxGeometry relative="1" as="geometry" />
        </mxCell>
        <mxCell id="uIO3_eCwUhngCl2YSvmF-10" value="order by" style="whiteSpace=wrap;html=1;dashed=1;fillColor=#e1d5e7;strokeColor=#9673a6;" parent="1" vertex="1">
          <mxGeometry x="70" y="460" width="120" height="60" as="geometry" />
        </mxCell>
        <mxCell id="uIO3_eCwUhngCl2YSvmF-11" value="limit" style="whiteSpace=wrap;html=1;dashed=1;fillColor=#f5f5f5;fontColor=#333333;strokeColor=#666666;" parent="1" vertex="1">
          <mxGeometry x="280" y="460" width="120" height="60" as="geometry" />
        </mxCell>
      </root>
    </mxGraphModel>
  </diagram>
</mxfile>
